<svg id="Layer_1" data-name="Layer 1" xmlns="http://www.w3.org/2000/svg" xmlns:xlink="http://www.w3.org/1999/xlink" viewBox="0 0 297.03 38.64">
	<defs>
		<style>
			.cls-1 {
				filter: url(#AI_Shadow_1);
			}

			.cls-2,
			.cls-3,
			.cls-4,
			.cls-5,
			.cls-6,
			.cls-7,
			.cls-8,
			.cls-9 {
				stroke: #fff;
				stroke-miterlimit: 10;
				stroke-width: 0.15px;
			}

			.cls-2 {
				fill: url(#linear-gradient);
			}

			.cls-3 {
				fill: url(#linear-gradient-2);
			}

			.cls-4 {
				fill: url(#linear-gradient-3);
			}

			.cls-5 {
				fill: url(#linear-gradient-4);
			}

			.cls-6 {
				fill: url(#linear-gradient-5);
			}

			.cls-7 {
				fill: url(#linear-gradient-6);
			}

			.cls-8 {
				fill: url(#linear-gradient-7);
			}

			.cls-9 {
				fill: url(#linear-gradient-8);
			}
		</style>
		<filter id="AI_Shadow_1" name="AI_Shadow_1">
			<feGaussianBlur result="blur" stdDeviation="2" in="SourceAlpha" />
			<feOffset result="offsetBlurredAlpha" dx="4" dy="4" in="blur" />
			<feMerge>
				<feMergeNode in="offsetBlurredAlpha" />
				<feMergeNode in="SourceGraphic" />
			</feMerge>
		</filter>
		<linearGradient id="linear-gradient" x1="63.09" y1="40.37" x2="23.1" y2="0.37" gradientUnits="userSpaceOnUse">
			<stop offset="0" stop-color="#939598" />
			<stop offset="0.49" stop-color="#f1f2f2" />
			<stop offset="1" stop-color="#939598" />
		</linearGradient>
		<linearGradient id="linear-gradient-2" x1="26.67" y1="41.97" x2="7.21" y2="22.52" xlink:href="#linear-gradient" />
		<linearGradient id="linear-gradient-3" x1="85.59" y1="30.73" x2="62.77" y2="7.91" xlink:href="#linear-gradient" />
		<linearGradient id="linear-gradient-4" x1="142.84" y1="32.75" x2="120.02" y2="9.93" xlink:href="#linear-gradient" />
		<linearGradient id="linear-gradient-5" x1="143.77" y1="40.56" x2="120.97" y2="17.76" xlink:href="#linear-gradient" />
		<linearGradient id="linear-gradient-6" x1="182.6" y1="30.73" x2="159.78" y2="7.91" xlink:href="#linear-gradient" />
		<linearGradient id="linear-gradient-7" x1="233.46" y1="26.52" x2="202.18" y2="-4.76" xlink:href="#linear-gradient" />
		<linearGradient id="linear-gradient-8" x1="303.81" y1="54.87" x2="272.09" y2="23.16" xlink:href="#linear-gradient" />
	</defs>
	<title>Nikita</title>
	<g class="cls-1">
		<path class="cls-2" d="M48.54,25.81a118.92,118.92,0,0,0,.82,15.82l-.16,0a106.55,106.55,0,0,0-9.94-12.5L21.52,9.7H13.77l6.32,6.12h0a.61.61,0,0,0,.07.1l.07.11A119.19,119.19,0,0,0,30.47,28.66L48.05,48.19h7.22V9.7H48.54Z" transform="translate(-13.59 -9.62)" />
		<path class="cls-3" d="M13.71,16V48.19h6.74V31.75c0-6.33-.17-10.93-.57-15.73Z" transform="translate(-13.59 -9.62)" />
		<rect class="cls-4" x="70.6" y="0.08" width="7.15" height="38.49" />
		<path class="cls-5" d="M139,25,157.79,9.7h-8.87L132,24.15c-1.39,1.26-2.87,2.63-4.35,4.11h-.24V9.7h-7.15V48.19h7.15V33.52l5.25-4.23L139,25Z" transform="translate(-13.59 -9.62)" />
		<polygon class="cls-6" points="119.06 19.66 137.31 38.56 145.76 38.56 127.44 19.77 119.06 19.66" />
		<rect class="cls-7" x="167.61" y="0.08" width="7.15" height="38.49" />
		<polygon class="cls-8" points="214.18 4.29 209.96 0.07 197.34 0.07 197.34 4.3 214.19 4.3 214.19 38.56 221.41 38.56 221.41 4.3 238.34 4.3 238.34 0.07 214.18 0.07 214.18 4.29" />
		<path class="cls-9" d="M291.59,9.7h-6l3,8.09c.43,1.07.91,2.18,1.47,3.33l5.42,11.08H278.78l5.42-11.13c.5-1.1,1-2.19,1.4-3.28H279l-14.86,30.4h7.39l5.75-12.1h19.63l5.92,12.1h7.64Z" transform="translate(-13.59 -9.62)" />
	</g>
</svg>